<svg version="1" xmlns="http://www.w3.org/2000/svg" width="1365.333" height="1365.333" viewBox="0 0 1024.000000 1024.000000"><path d="M313.5 142.2c-2.6 2.5-14 24.5-46.8 90.3-23.9 47.8-44.6 90.1-46.1 93.8-12.8 32.2-8.1 72.2 11.7 100.5 7.2 10.3 14.6 17.2 47.9 44.3l31.7 25.9H338l-.2-173.3c-.3-161.4-.4-173.4-2-176.3-3.2-5.8-7.3-8.4-13.4-8.4-4.8 0-5.9.4-8.9 3.2zM693 141.6c-1.7 1.5-3.8 4-4.8 5.8-1.6 2.9-1.7 14.9-2 176.3L686 497h26.1l31.7-25.9c17.4-14.2 34.4-28.6 37.6-31.9 28.1-28.9 37.1-75 22-112.9-1.5-3.7-22.2-46-46.1-93.8-32.8-65.8-44.2-87.8-46.8-90.3-3-2.8-4.1-3.2-8.9-3.2-4.4 0-6 .5-8.6 2.6zM401.5 292.6c-2.2.8-5.7 2.8-7.7 4.4l-3.6 3-6.5-3c-6.9-3.3-9.4-3.1-10.3.6-.8 3.2.4 4.4 7.5 7.8l6 2.9-.6 4.7c-.6 5.4 2.1 12.6 6.5 17.4 9.6 10.2 28.2 8.3 35.6-3.8 5.4-8.7 4.7-20-1.7-27.3-6.3-7.2-16.5-9.9-25.2-6.7zM605.5 293.4c-2.7 1.3-6.2 3.6-7.7 5.2-9.1 9.8-7.2 26.9 3.9 34.5 5.3 3.7 14.5 5 20.8 2.9 8.9-2.9 16.2-14 15.2-23.1l-.6-4.6 6-2.9c7.1-3.4 8.3-4.6 7.5-7.8-.9-3.7-3.4-3.9-10.3-.6l-6.5 3-3.6-3c-7.8-6.2-16.5-7.5-24.7-3.6zM493.1 374.5c-9.1 1.7-12.8 3.1-16.3 6.3-5 4.6-4.2 7.3 8.8 29.7 11.1 19.2 16.3 26.5 19.1 26.5 1 0 1.3 6 1.3 30v30h12v-30c0-24 .3-30 1.3-30 2.8 0 8-7.3 19.1-26.5 13-22.4 13.8-25.1 8.9-29.6-3.8-3.5-7-4.7-17-6.4-10.3-1.8-27.1-1.8-37.2 0zM389 469.8c-3.4 2.7-2.8 6.7 2.4 17.6l4.6 9.6h17.2l-2.2-3.3c-1.2-1.7-4.4-7.8-7.2-13.5-2.7-5.6-5.8-10.7-6.8-11.2-2.8-1.5-5.5-1.2-8 .8zM626.8 469c-.9.6-3.9 5.6-6.6 11.3-2.8 5.6-6 11.7-7.2 13.4l-2.2 3.3H628l4.6-9.6c2.5-5.2 4.6-10.9 4.6-12.6.2-5.2-5.7-8.5-10.4-5.8z"/></svg>